<svg version="1.1" xmlns="http://www.w3.org/2000/svg" viewBox="0 0 151.4765625 163.77734375" width="302.953125" height="327.5546875">
  <!-- svg-source:excalidraw -->
  
  <defs>
    <style class="style-fonts">
      @font-face {
        font-family: "Virgil";
        src: url("https://excalidraw.com/Virgil.woff2");
      }
      @font-face {
        font-family: "Cascadia";
        src: url("https://excalidraw.com/Cascadia.woff2");
      }
    </style>
  </defs>
  <rect x="0" y="0" width="151.4765625" height="163.77734375" fill="#ffffff"></rect><g transform="translate(61.625 133.3046875) rotate(0 14.11328125 -48.568359375)" stroke="none"><path fill="#087f5b" d="M 0,2.64 Q 0,2.64 -1.27,2.64 -2.55,2.65 -4.42,2.71 -6.28,2.77 -7.53,2.84 -8.78,2.90 -10.07,2.98 -11.36,3.05 -12.71,3.11 -14.05,3.17 -15.82,2.90 -17.58,2.63 -19.17,2.36 -20.76,2.10 -22.23,1.62 -23.70,1.14 -25.44,1.20 -27.18,1.25 -28.41,1.11 -29.65,0.97 -31.02,0.78 -32.39,0.60 -33.76,0.38 -35.12,0.16 -36.24,0.01 -37.36,-0.12 -38.53,-0.23 -39.71,-0.33 -41.30,-0.66 -42.88,-0.99 -44.01,-1.25 -45.14,-1.51 -46.21,-1.78 -47.28,-2.06 -48.47,-2.33 -49.66,-2.60 -50.58,-2.63 -51.51,-2.66 -51.93,-2.72 -52.35,-2.77 -52.74,-2.92 -53.14,-3.07 -53.49,-3.31 -53.84,-3.55 -54.12,-3.87 -54.40,-4.19 -54.60,-4.56 -54.79,-4.94 -54.89,-5.35 -54.99,-5.76 -54.99,-6.19 -54.99,-6.61 -54.89,-7.02 -54.79,-7.43 -54.59,-7.81 -54.39,-8.18 -54.11,-8.50 -53.83,-8.82 -53.48,-9.06 -53.13,-9.30 -52.73,-9.45 -52.34,-9.60 -51.92,-9.65 -51.50,-9.70 -50.38,-9.80 -49.27,-9.89 -47.83,-9.95 -46.38,-10.01 -44.80,-10.32 -43.22,-10.62 -41.79,-11.02 -40.36,-11.41 -38.87,-11.92 -37.38,-12.43 -36.07,-13.03 -34.76,-13.62 -33.60,-14.45 -32.44,-15.28 -30.89,-16.48 -29.35,-17.69 -28.40,-18.34 -27.45,-18.98 -26.51,-19.59 -25.56,-20.20 -24.11,-21.26 -22.66,-22.32 -21.32,-23.29 -19.97,-24.27 -18.61,-25.06 -17.25,-25.85 -16.19,-26.52 -15.13,-27.18 -13.72,-27.94 -12.31,-28.69 -11.05,-29.26 -9.79,-29.83 -8.74,-30.33 -7.70,-30.82 -6.63,-31.38 -5.56,-31.95 -4.24,-32.75 -2.93,-33.54 -1.76,-34.49 -0.60,-35.44 -0.05,-34.31 0.49,-33.17 -0.69,-33.03 -1.89,-32.89 -3.24,-32.94 -4.59,-32.99 -5.93,-33.00 -7.27,-33.02 -8.64,-33.01 -10.00,-33.01 -11.38,-33.00 -12.77,-32.99 -14.12,-32.99 -15.48,-32.98 -16.68,-33.14 -17.88,-33.30 -18.98,-33.66 -20.07,-34.03 -21.28,-34.60 -22.49,-35.17 -23.66,-35.39 -24.84,-35.60 -26.32,-35.75 -27.79,-35.89 -29.01,-36.04 -30.23,-36.19 -31.46,-36.34 -32.70,-36.48 -33.94,-36.50 -35.19,-36.51 -36.20,-36.94 -37.20,-37.37 -37.95,-38.23 -38.69,-39.08 -38.39,-40.66 -38.08,-42.24 -36.82,-43.37 -35.57,-44.50 -33.99,-44.66 -32.40,-44.83 -31.12,-44.98 -29.85,-45.13 -28.30,-45.44 -26.75,-45.75 -25.28,-46.12 -23.81,-46.50 -22.20,-46.96 -20.60,-47.42 -18.61,-47.94 -16.63,-48.47 -15.02,-49.05 -13.42,-49.63 -12.17,-50.67 -10.92,-51.70 -9.63,-52.58 -8.33,-53.46 -7.25,-54.23 -6.16,-55.00 -5.02,-55.54 -3.89,-56.07 -2.76,-56.61 -1.64,-57.14 -0.50,-57.84 0.62,-58.55 1.89,-59.42 3.15,-60.29 4.31,-60.97 5.47,-61.66 6.68,-62.08 7.90,-62.49 8.96,-63.18 10.03,-63.87 11.00,-64.44 11.96,-65.01 11.97,-63.71 11.98,-62.41 12.89,-61.72 13.80,-61.02 12.56,-61.36 11.32,-61.69 9.99,-61.95 8.65,-62.20 7.50,-62.39 6.36,-62.58 5.17,-62.63 3.99,-62.67 2.45,-62.73 0.92,-62.79 -0.32,-62.94 -1.57,-63.09 -2.98,-63.27 -4.39,-63.46 -5.59,-63.72 -6.79,-63.98 -8.10,-64.21 -9.41,-64.45 -10.58,-64.79 -11.76,-65.13 -12.95,-65.81 -14.13,-66.49 -14.65,-67.46 -15.18,-68.43 -15.08,-69.65 -14.99,-70.88 -14.33,-71.75 -13.68,-72.63 -12.02,-73.14 -10.35,-73.65 -8.83,-73.76 -7.31,-73.88 -5.76,-74.36 -4.21,-74.84 -2.67,-75.35 -1.13,-75.86 0.19,-76.34 1.52,-76.81 2.92,-77.36 4.31,-77.91 5.61,-78.57 6.90,-79.23 8.26,-79.98 9.63,-80.73 10.76,-81.63 11.89,-82.53 12.82,-83.48 13.74,-84.44 14.75,-85.51 15.76,-86.58 16.90,-87.62 18.04,-88.66 19.16,-89.60 20.29,-90.55 21.23,-91.39 22.17,-92.23 23.25,-93.16 24.32,-94.09 25.25,-94.80 26.19,-95.50 27.36,-96.20 28.53,-96.90 29.51,-97.43 30.50,-97.96 31.52,-98.29 32.54,-98.63 33.62,-99.09 34.70,-99.55 35.79,-100.04 36.87,-100.53 36.05,-100.20 35.24,-99.88 35.61,-100.11 35.98,-100.35 36.40,-100.49 36.81,-100.63 37.25,-100.67 37.68,-100.70 38.12,-100.63 38.55,-100.57 38.95,-100.39 39.36,-100.22 39.71,-99.96 40.06,-99.70 40.34,-99.36 40.62,-99.02 40.81,-98.63 41.00,-98.23 41.09,-97.80 41.17,-97.37 41.16,-96.93 41.14,-96.50 41.02,-96.07 40.90,-95.65 40.68,-95.27 40.46,-94.89 40.16,-94.57 39.86,-94.26 40.52,-95.79 41.18,-97.32 41.22,-95.89 41.27,-94.46 41.61,-93.15 41.95,-91.83 42.39,-90.67 42.84,-89.51 43.35,-88.23 43.87,-86.94 44.32,-85.79 44.77,-84.64 44.99,-83.58 45.20,-82.53 45.72,-81.27 46.23,-80.01 46.72,-79.06 47.21,-78.10 47.64,-77.10 48.07,-76.10 48.84,-74.92 49.62,-73.75 50.13,-72.70 50.64,-71.64 51.34,-70.40 52.04,-69.16 50.96,-70.16 49.88,-71.16 51.37,-70.83 52.86,-70.50 54.18,-70.08 55.51,-69.66 56.93,-69.17 58.35,-68.68 59.60,-68.31 60.86,-67.95 62.45,-67.57 64.04,-67.18 65.07,-66.90 66.10,-66.61 67.23,-66.41 68.35,-66.22 69.65,-66.09 70.94,-65.96 72.09,-65.83 73.25,-65.70 74.50,-65.55 75.76,-65.40 76.82,-65.40 77.89,-65.40 79.66,-64.81 81.42,-64.21 81.95,-62.62 82.47,-61.04 82.11,-59.94 81.74,-58.85 80.72,-58.07 79.69,-57.29 78.50,-56.88 77.31,-56.46 76.10,-56.23 74.89,-56.00 73.82,-55.97 72.76,-55.94 71.57,-55.94 70.38,-55.93 69.27,-55.94 68.16,-55.94 67.07,-55.94 65.99,-55.94 64.88,-55.93 63.77,-55.92 62.53,-55.91 61.29,-55.90 60.17,-55.90 59.06,-55.90 57.85,-55.61 56.64,-55.32 55.48,-54.86 54.31,-54.41 53.12,-53.84 51.93,-53.28 50.64,-52.71 49.34,-52.15 48.27,-51.80 47.19,-51.44 46.08,-51.30 44.98,-51.15 43.78,-50.90 42.58,-50.65 42.04,-50.63 41.50,-50.62 41.04,-50.67 40.58,-50.73 40.14,-50.89 39.71,-51.06 39.32,-51.32 38.94,-51.58 38.63,-51.93 38.32,-52.28 38.11,-52.69 37.89,-53.10 37.78,-53.55 37.67,-54.01 37.67,-54.47 37.67,-54.94 37.78,-55.39 37.89,-55.84 38.10,-56.25 38.32,-56.66 38.63,-57.01 38.93,-57.36 39.32,-57.63 39.70,-57.89 40.13,-58.06 40.57,-58.22 41.03,-58.28 41.49,-58.33 42.60,-58.73 43.71,-59.13 44.78,-59.15 45.85,-59.17 47.56,-58.72 49.28,-58.27 50.33,-57.49 51.37,-56.71 52.30,-55.85 53.22,-54.98 54.17,-54.08 55.12,-53.17 56.07,-52.42 57.02,-51.66 58.09,-50.95 59.17,-50.24 60.18,-49.75 61.20,-49.26 62.48,-48.61 63.76,-47.96 64.98,-47.20 66.19,-46.43 67.34,-45.63 68.49,-44.82 69.66,-43.96 70.83,-43.11 71.89,-42.26 72.96,-41.40 73.80,-40.71 74.65,-40.01 75.53,-39.38 76.41,-38.74 77.32,-38.05 78.23,-37.36 79.43,-36.51 80.62,-35.66 81.42,-34.95 82.23,-34.23 82.70,-33.13 83.17,-32.04 83.42,-30.98 83.67,-29.93 83.00,-28.42 82.33,-26.90 81.43,-26.20 80.52,-25.49 79.40,-25.29 78.28,-25.10 76.99,-25.08 75.71,-25.07 74.06,-25.09 72.40,-25.11 70.68,-25.18 68.95,-25.25 67.10,-25.59 65.26,-25.92 64.09,-26.18 62.93,-26.45 61.61,-26.55 60.29,-26.65 59.01,-26.65 57.73,-26.65 56.61,-26.65 55.49,-26.65 54.35,-26.66 53.21,-26.66 51.82,-26.66 50.44,-26.65 49.05,-26.64 47.66,-26.62 46.60,-26.61 45.53,-26.60 44.19,-26.58 42.84,-26.57 41.56,-26.56 40.28,-26.55 40.01,-26.51 39.74,-26.48 39.29,-26.54 38.84,-26.59 38.42,-26.75 38.00,-26.91 37.62,-27.17 37.25,-27.43 36.95,-27.77 36.65,-28.10 36.44,-28.51 36.23,-28.91 36.12,-29.35 36.01,-29.79 36.01,-30.24 36.01,-30.69 36.12,-31.13 36.23,-31.57 36.44,-31.97 36.65,-32.37 36.95,-32.71 37.25,-33.05 37.63,-33.31 38.00,-33.56 38.42,-33.72 38.84,-33.88 39.29,-33.94 39.74,-33.99 41.14,-33.37 42.53,-32.76 44.04,-32.11 45.54,-31.46 47.00,-30.72 48.45,-29.99 49.51,-29.61 50.56,-29.22 51.75,-28.84 52.93,-28.45 54.12,-27.93 55.30,-27.42 56.46,-26.73 57.61,-26.04 58.90,-25.02 60.18,-24.00 61.20,-23.03 62.21,-22.06 63.13,-21.15 64.05,-20.24 64.85,-19.46 65.65,-18.67 66.47,-17.90 67.29,-17.14 68.14,-16.26 68.98,-15.39 69.88,-14.50 70.77,-13.60 71.68,-12.70 72.59,-11.79 73.43,-10.98 74.28,-10.16 75.08,-9.30 75.88,-8.43 76.73,-7.39 77.58,-6.34 78.40,-5.50 79.22,-4.66 79.73,-3.50 80.24,-2.35 79.52,-0.69 78.80,0.96 77.47,1.60 76.14,2.24 74.67,2.24 73.20,2.23 72.05,2.22 70.89,2.21 69.74,2.20 68.58,2.19 66.98,2.14 65.39,2.08 64.31,2.00 63.23,1.91 62.00,1.91 60.76,1.92 59.62,1.93 58.47,1.94 57.37,1.95 56.27,1.96 54.93,1.96 53.60,1.96 52.33,1.96 51.06,1.95 49.60,1.94 48.13,1.93 46.61,1.93 45.08,1.92 43.75,1.91 42.43,1.91 41.20,1.91 39.97,1.91 38.67,1.92 37.37,1.93 36.04,1.93 34.70,1.94 33.60,1.95 32.49,1.95 31.35,1.96 30.22,1.97 29.04,1.99 27.86,2.00 25.41,2.01 22.96,2.02 22.35,1.92 21.74,1.82 21.19,1.53 20.64,1.24 20.22,0.79 19.79,0.34 19.53,-0.22 19.27,-0.78 19.20,-1.40 19.14,-2.01 19.27,-2.62 19.40,-3.22 19.72,-3.75 20.04,-4.28 20.51,-4.68 20.99,-5.09 21.56,-5.31 22.14,-5.54 22.76,-5.58 23.37,-5.61 23.97,-5.45 24.57,-5.28 25.08,-4.93 25.59,-4.58 25.97,-4.09 26.34,-3.60 26.54,-3.01 26.74,-2.42 26.74,-1.80 26.74,-1.18 26.54,-0.60 26.34,-0.01 25.97,0.47 25.59,0.97 25.08,1.32 24.57,1.66 23.97,1.83 23.37,1.99 22.75,1.96 22.14,1.93 21.56,1.70 20.98,1.47 20.51,1.07 20.04,0.67 19.72,0.13 19.40,-0.39 19.27,-0.99 19.14,-1.60 19.20,-2.21 19.27,-2.83 19.53,-3.39 19.79,-3.95 20.22,-4.40 20.64,-4.85 21.19,-5.14 21.74,-5.43 22.35,-5.53 22.96,-5.63 22.96,-5.63 22.96,-5.63 25.25,-5.63 27.54,-5.62 28.68,-5.61 29.82,-5.60 30.91,-5.58 32.00,-5.57 33.07,-5.57 34.15,-5.56 35.44,-5.55 36.74,-5.55 38.00,-5.54 39.26,-5.53 40.44,-5.53 41.62,-5.53 42.91,-5.53 44.20,-5.53 45.64,-5.54 47.08,-5.54 48.62,-5.56 50.17,-5.57 51.47,-5.57 52.77,-5.57 53.96,-5.58 55.15,-5.58 56.23,-5.57 57.31,-5.57 58.38,-5.56 59.45,-5.55 60.59,-5.54 61.72,-5.53 63.00,-5.49 64.27,-5.46 65.48,-5.33 66.69,-5.21 68.17,-5.21 69.65,-5.22 70.87,-5.23 72.10,-5.25 73.42,-4.68 74.74,-4.10 73.77,-2.31 72.81,-0.51 71.90,-1.59 70.99,-2.67 70.06,-3.76 69.13,-4.85 68.24,-5.71 67.36,-6.57 66.46,-7.48 65.55,-8.39 64.64,-9.30 63.73,-10.22 62.74,-11.26 61.75,-12.31 60.88,-13.14 60.00,-13.98 59.16,-14.84 58.31,-15.71 57.42,-16.60 56.53,-17.50 55.72,-18.29 54.90,-19.07 54.02,-19.78 53.13,-20.50 51.91,-21.08 50.69,-21.67 49.50,-22.05 48.30,-22.43 46.86,-22.95 45.41,-23.47 43.89,-24.16 42.37,-24.85 40.84,-25.51 39.31,-26.18 38.35,-26.74 37.39,-27.30 38.56,-26.89 39.74,-26.48 39.29,-26.54 38.84,-26.59 38.42,-26.75 38.00,-26.91 37.63,-27.17 37.25,-27.43 36.95,-27.77 36.65,-28.10 36.44,-28.51 36.23,-28.91 36.12,-29.35 36.01,-29.79 36.01,-30.24 36.01,-30.69 36.12,-31.13 36.23,-31.57 36.44,-31.97 36.65,-32.37 36.95,-32.71 37.25,-33.05 37.62,-33.31 38.00,-33.56 38.42,-33.72 38.84,-33.88 39.29,-33.94 39.74,-33.99 39.88,-34.02 40.01,-34.04 41.13,-34.03 42.26,-34.02 43.33,-34.01 44.40,-34.00 45.74,-33.98 47.07,-33.97 48.39,-33.95 49.72,-33.94 50.97,-33.93 52.21,-33.92 53.28,-33.93 54.36,-33.93 55.51,-33.93 56.66,-33.94 58.10,-33.93 59.54,-33.93 60.88,-33.88 62.22,-33.84 63.36,-33.67 64.50,-33.49 65.67,-33.24 66.83,-32.98 68.03,-32.79 69.23,-32.59 70.81,-32.60 72.40,-32.62 73.69,-32.64 74.97,-32.67 76.11,-32.14 77.24,-31.61 77.00,-29.79 76.76,-27.96 76.10,-29.02 75.44,-30.07 74.57,-30.70 73.70,-31.34 72.60,-32.15 71.49,-32.97 70.42,-33.83 69.34,-34.69 68.46,-35.42 67.59,-36.15 66.67,-36.83 65.76,-37.51 64.63,-38.30 63.50,-39.08 62.45,-39.81 61.40,-40.54 60.14,-41.27 58.87,-41.99 57.45,-42.65 56.03,-43.30 54.80,-44.01 53.58,-44.73 52.71,-45.38 51.84,-46.03 50.98,-46.73 50.12,-47.44 49.09,-48.39 48.06,-49.33 47.18,-50.36 46.29,-51.39 45.14,-51.21 43.99,-51.02 42.74,-50.82 41.50,-50.62 41.04,-50.67 40.58,-50.73 40.14,-50.89 39.71,-51.06 39.32,-51.32 38.94,-51.58 38.63,-51.93 38.32,-52.28 38.11,-52.69 37.89,-53.10 37.78,-53.55 37.67,-54.01 37.67,-54.47 37.67,-54.94 37.78,-55.39 37.89,-55.84 38.10,-56.25 38.32,-56.66 38.63,-57.01 38.93,-57.36 39.32,-57.63 39.70,-57.89 40.13,-58.06 40.57,-58.22 41.03,-58.28 41.49,-58.33 41.02,-58.09 40.55,-57.85 41.71,-58.28 42.86,-58.71 44.17,-58.81 45.47,-58.90 46.48,-59.30 47.49,-59.69 48.48,-60.10 49.46,-60.52 50.70,-61.14 51.94,-61.76 53.18,-62.23 54.42,-62.70 55.64,-63.10 56.85,-63.49 58.19,-63.56 59.52,-63.63 60.75,-63.63 61.98,-63.62 63.08,-63.61 64.17,-63.61 65.29,-63.60 66.40,-63.59 67.62,-63.59 68.85,-63.59 70.20,-63.59 71.54,-63.60 72.71,-63.59 73.88,-63.58 74.99,-63.74 76.10,-63.90 75.73,-62.80 75.36,-61.71 75.80,-60.57 76.24,-59.43 77.06,-58.65 77.87,-57.88 76.67,-57.90 75.47,-57.91 74.28,-58.04 73.10,-58.17 71.89,-58.35 70.68,-58.52 69.60,-58.66 68.52,-58.80 67.36,-58.91 66.19,-59.02 64.88,-59.35 63.57,-59.68 62.45,-60.02 61.33,-60.36 60.15,-60.61 58.98,-60.86 57.59,-61.23 56.19,-61.59 54.71,-62.04 53.23,-62.48 51.78,-62.91 50.33,-63.33 49.28,-63.53 48.24,-63.72 47.08,-64.47 45.91,-65.21 45.27,-66.11 44.62,-67.01 44.07,-68.02 43.51,-69.04 42.91,-70.18 42.30,-71.31 41.70,-72.46 41.09,-73.60 40.63,-74.67 40.18,-75.74 39.57,-77.11 38.96,-78.48 38.54,-79.73 38.12,-80.98 37.85,-82.23 37.58,-83.48 37.06,-84.77 36.54,-86.07 36.17,-87.10 35.80,-88.14 35.20,-89.79 34.60,-91.44 34.30,-92.74 33.99,-94.04 33.97,-95.32 33.94,-96.59 34.59,-98.24 35.24,-99.88 35.61,-100.11 35.98,-100.35 36.40,-100.49 36.81,-100.63 37.25,-100.67 37.68,-100.70 38.12,-100.63 38.55,-100.57 38.95,-100.39 39.36,-100.22 39.71,-99.96 40.06,-99.70 40.34,-99.36 40.62,-99.02 40.81,-98.63 41.00,-98.23 41.09,-97.80 41.17,-97.37 41.16,-96.93 41.14,-96.50 41.02,-96.07 40.90,-95.65 40.68,-95.27 40.47,-94.89 40.16,-94.57 39.86,-94.26 39.95,-94.36 40.03,-94.47 38.96,-93.92 37.89,-93.37 38.91,-94.11 39.93,-94.86 38.77,-93.94 37.62,-93.02 36.55,-92.61 35.48,-92.20 34.16,-91.77 32.85,-91.35 31.61,-90.66 30.37,-89.98 29.08,-89.04 27.79,-88.09 26.78,-87.16 25.77,-86.22 24.69,-85.31 23.61,-84.41 22.59,-83.53 21.57,-82.64 20.64,-81.75 19.71,-80.86 18.68,-79.73 17.64,-78.60 16.27,-77.35 14.90,-76.10 13.26,-74.96 11.63,-73.82 10.20,-73.05 8.78,-72.28 7.13,-71.47 5.49,-70.67 4.08,-70.12 2.67,-69.58 1.21,-69.04 -0.24,-68.50 -1.63,-67.95 -3.01,-67.40 -4.75,-66.92 -6.48,-66.44 -8.16,-66.24 -9.83,-66.05 -9.01,-67.03 -8.18,-68.02 -8.11,-69.14 -8.05,-70.26 -9.13,-71.50 -10.21,-72.74 -8.98,-72.28 -7.75,-71.83 -6.45,-71.60 -5.14,-71.38 -3.75,-71.10 -2.36,-70.82 -0.90,-70.65 0.54,-70.48 1.94,-70.35 3.34,-70.22 4.57,-70.21 5.80,-70.20 7.06,-70.05 8.33,-69.91 9.66,-69.67 11.00,-69.43 12.16,-69.09 13.31,-68.76 14.38,-68.53 15.44,-68.31 16.81,-67.41 18.19,-66.50 18.56,-65.28 18.94,-64.05 18.83,-62.99 18.72,-61.93 18.04,-60.87 17.37,-59.82 16.32,-59.13 15.27,-58.44 14.08,-57.77 12.89,-57.11 11.88,-56.53 10.86,-55.94 9.81,-55.62 8.75,-55.30 7.63,-54.59 6.51,-53.89 5.36,-53.18 4.22,-52.46 2.92,-51.70 1.61,-50.93 0.14,-50.28 -1.33,-49.63 -2.58,-48.97 -3.83,-48.31 -5.23,-47.42 -6.64,-46.53 -7.85,-45.56 -9.07,-44.58 -10.85,-43.66 -12.63,-42.74 -13.65,-42.37 -14.67,-42.01 -15.89,-41.57 -17.12,-41.14 -18.62,-40.69 -20.13,-40.25 -21.77,-39.71 -23.41,-39.17 -25.15,-38.72 -26.88,-38.26 -28.63,-37.90 -30.37,-37.53 -32.00,-37.36 -33.63,-37.19 -33.01,-38.12 -32.38,-39.05 -32.07,-40.49 -31.76,-41.93 -32.29,-42.94 -32.82,-43.95 -31.66,-43.80 -30.51,-43.64 -29.05,-43.47 -27.59,-43.29 -26.51,-43.16 -25.43,-43.02 -24.17,-42.94 -22.92,-42.86 -21.76,-42.57 -20.60,-42.27 -19.29,-41.68 -17.97,-41.09 -16.97,-40.71 -15.97,-40.32 -14.84,-40.28 -13.71,-40.24 -12.25,-40.24 -10.79,-40.23 -9.58,-40.22 -8.38,-40.21 -7.14,-40.21 -5.89,-40.21 -4.46,-40.22 -3.03,-40.22 -1.26,-40.13 0.49,-40.05 1.77,-39.76 3.04,-39.48 4.56,-38.66 6.07,-37.85 6.55,-35.95 7.04,-34.06 6.50,-32.80 5.97,-31.54 5.06,-30.75 4.15,-29.96 3.05,-29.06 1.96,-28.15 0.82,-27.52 -0.30,-26.88 -1.31,-26.21 -2.32,-25.55 -3.68,-24.93 -5.04,-24.32 -6.04,-23.84 -7.05,-23.37 -8.15,-22.91 -9.26,-22.45 -10.35,-22.01 -11.44,-21.57 -12.80,-20.82 -14.16,-20.06 -15.15,-19.55 -16.14,-19.04 -17.52,-18.05 -18.90,-17.06 -20.42,-15.94 -21.94,-14.82 -23.58,-13.64 -25.23,-12.46 -26.74,-11.20 -28.26,-9.94 -29.10,-9.27 -29.93,-8.61 -31.64,-7.62 -33.34,-6.62 -34.98,-5.97 -36.62,-5.33 -38.27,-4.76 -39.93,-4.19 -41.43,-3.79 -42.93,-3.38 -44.57,-3.14 -46.20,-2.90 -47.34,-2.85 -48.48,-2.80 -49.99,-2.73 -51.51,-2.66 -51.93,-2.72 -52.35,-2.77 -52.74,-2.92 -53.14,-3.07 -53.49,-3.31 -53.84,-3.55 -54.12,-3.87 -54.40,-4.19 -54.60,-4.56 -54.79,-4.94 -54.89,-5.35 -54.99,-5.76 -54.99,-6.19 -54.99,-6.61 -54.89,-7.02 -54.79,-7.43 -54.59,-7.81 -54.39,-8.18 -54.11,-8.50 -53.83,-8.82 -53.48,-9.06 -53.13,-9.30 -52.73,-9.45 -52.34,-9.60 -51.92,-9.65 -51.50,-9.70 -50.95,-9.68 -50.39,-9.66 -49.19,-9.45 -47.99,-9.24 -46.73,-8.86 -45.47,-8.48 -44.46,-8.14 -43.44,-7.80 -42.38,-7.49 -41.33,-7.19 -40.08,-6.87 -38.83,-6.55 -37.74,-6.38 -36.64,-6.21 -35.49,-6.08 -34.33,-5.96 -33.05,-5.84 -31.78,-5.72 -30.45,-5.65 -29.13,-5.57 -26.92,-5.46 -24.71,-5.35 -23.13,-5.14 -21.56,-4.93 -20.50,-4.58 -19.44,-4.23 -17.91,-3.96 -16.38,-3.68 -15.21,-3.43 -14.04,-3.17 -12.70,-3.11 -11.36,-3.05 -10.07,-2.98 -8.78,-2.90 -7.53,-2.84 -6.28,-2.77 -4.42,-2.71 -2.55,-2.65 -1.27,-2.64 0,-2.64 0.31,-2.60 0.63,-2.56 0.93,-2.45 1.22,-2.34 1.49,-2.15 1.75,-1.97 1.96,-1.74 2.17,-1.50 2.32,-1.21 2.47,-0.93 2.54,-0.62 2.62,-0.31 2.62,0.00 2.62,0.31 2.54,0.62 2.47,0.93 2.32,1.21 2.17,1.50 1.96,1.74 1.75,1.97 1.49,2.15 1.22,2.34 0.93,2.45 0.63,2.56 0.31,2.60 -0.00,2.64 -0.00,2.64 L 0,2.64 Z"></path></g><g transform="translate(60.54296875 132.92578125) rotate(0 9.85546875 10.42578125)" stroke="none"><path fill="#5e2c04" d="M 2.57,0 Q 2.57,0 2.57,1.33 2.58,2.66 2.66,4.20 2.74,5.73 2.82,6.81 2.90,7.90 3.00,9.26 3.09,10.63 2.83,11.92 2.56,13.21 2.39,14.36 2.22,15.51 2.15,16.60 2.07,17.69 2.11,18.79 2.15,19.89 1.43,18.91 0.70,17.94 1.88,17.55 3.05,17.16 4.66,17.05 6.27,16.94 7.63,16.93 8.99,16.91 10.22,16.90 11.46,16.88 12.68,16.87 13.90,16.85 15.06,17.00 16.22,17.16 17.34,17.12 18.45,17.08 17.82,18.02 17.19,18.97 16.99,17.90 16.78,16.83 16.79,15.61 16.79,14.38 16.79,13.09 16.78,11.80 16.78,10.66 16.77,9.52 16.77,8.37 16.76,7.22 16.75,6.07 16.74,4.92 17.73,4.93 18.72,4.95 18.22,4.57 17.73,4.19 17.38,3.68 17.03,3.16 16.86,2.56 16.70,1.96 16.73,1.34 16.76,0.71 16.99,0.13 17.22,-0.44 17.63,-0.91 18.03,-1.39 18.57,-1.71 19.10,-2.03 19.71,-2.16 20.32,-2.30 20.94,-2.23 21.56,-2.16 22.12,-1.90 22.69,-1.64 23.14,-1.21 23.59,-0.78 23.89,-0.23 24.18,0.31 24.28,0.93 24.38,1.54 24.28,2.16 24.18,2.77 23.89,3.32 23.59,3.87 23.14,4.30 22.69,4.73 22.12,4.99 21.56,5.26 20.94,5.32 20.32,5.39 19.71,5.26 19.10,5.12 18.56,4.80 18.03,4.48 17.63,4.00 17.22,3.53 16.99,2.95 16.76,2.37 16.73,1.75 16.70,1.12 16.86,0.52 17.03,-0.07 17.38,-0.58 17.73,-1.10 18.23,-1.48 18.72,-1.85 19.31,-2.05 19.90,-2.25 20.53,-2.25 21.15,-2.25 21.74,-2.05 22.33,-1.85 22.33,-1.85 22.33,-1.85 23.38,2.24 24.43,6.34 24.42,7.52 24.41,8.71 24.40,9.96 24.40,11.21 24.39,12.49 24.38,13.76 24.39,14.90 24.39,16.04 24.39,17.40 24.39,18.76 24.33,20.10 24.27,21.44 23.43,22.64 22.60,23.84 20.83,24.22 19.06,24.61 17.94,24.59 16.81,24.58 15.59,24.42 14.36,24.26 13.16,24.24 11.95,24.22 10.80,24.21 9.65,24.19 8.54,24.19 7.42,24.18 6.09,24.21 4.76,24.23 3.19,24.34 1.62,24.45 0.40,24.42 -0.81,24.40 -2.03,24.02 -3.24,23.65 -3.83,22.69 -4.42,21.73 -4.63,20.44 -4.84,19.16 -4.79,18.00 -4.75,16.85 -4.53,15.79 -4.31,14.74 -4.09,13.69 -3.87,12.64 -3.48,11.63 -3.09,10.62 -3.00,9.26 -2.90,7.90 -2.82,6.81 -2.74,5.73 -2.66,4.20 -2.58,2.66 -2.57,1.33 -2.57,0 -2.53,-0.30 -2.50,-0.61 -2.39,-0.90 -2.28,-1.19 -2.10,-1.45 -1.92,-1.70 -1.69,-1.91 -1.46,-2.11 -1.18,-2.26 -0.91,-2.40 -0.61,-2.48 -0.31,-2.55 0.00,-2.55 0.31,-2.55 0.61,-2.48 0.91,-2.40 1.18,-2.26 1.46,-2.11 1.69,-1.91 1.92,-1.70 2.10,-1.45 2.28,-1.19 2.39,-0.90 2.50,-0.61 2.53,-0.30 2.57,0.00 2.57,0.00 L 2.57,0 Z"></path></g><g transform="translate(112.8671875 126.73046875) rotate(0 2.146484375 4.056640625)" stroke="none"><path fill="#c30f16" d="M 1.49,2.12 Q 1.49,2.12 0.91,2.57 0.34,3.02 1.55,3.63 2.77,4.23 3.87,4.48 4.97,4.74 4.09,5.45 3.20,6.16 3.04,5.10 2.87,4.04 0.63,3.68 -1.59,3.32 -2.08,2.98 -2.57,2.64 -2.93,2.16 -3.28,1.68 -3.46,1.11 -3.65,0.54 -3.64,-0.04 -3.63,-0.64 -3.43,-1.21 -3.23,-1.77 -2.87,-2.24 -2.50,-2.71 -2.00,-3.04 -1.50,-3.37 -0.92,-3.52 -0.34,-3.67 0.24,-3.63 0.84,-3.59 1.39,-3.36 1.94,-3.13 2.39,-2.74 2.84,-2.35 3.14,-1.83 3.44,-1.31 3.56,-0.73 3.68,-0.14 3.61,0.44 3.54,1.03 3.28,1.57 3.02,2.11 2.61,2.54 2.19,2.96 1.66,3.24 1.13,3.51 0.54,3.60 -0.05,3.69 -0.63,3.58 -1.22,3.48 -1.75,3.19 -2.27,2.90 -2.67,2.46 -3.08,2.02 -3.32,1.48 -3.57,0.93 -3.62,0.34 -3.68,-0.25 -3.54,-0.83 -3.41,-1.41 -3.09,-1.92 -2.78,-2.42 -2.32,-2.80 -1.85,-3.18 -1.30,-3.40 -0.74,-3.61 -0.14,-3.64 0.44,-3.66 1.02,-3.49 1.59,-3.32 1.59,-3.32 1.59,-3.32 3.19,-2.70 4.78,-2.08 5.96,-1.79 7.13,-1.50 8.02,-0.90 8.91,-0.30 9.47,1.23 10.04,2.76 10.01,3.82 9.97,4.89 9.93,5.99 9.89,7.09 9.48,8.42 9.08,9.75 7.81,10.58 6.54,11.41 5.48,11.43 4.42,11.44 3.29,11.20 2.17,10.95 1.00,10.45 -0.16,9.95 -1.25,9.35 -2.34,8.75 -3.08,7.93 -3.82,7.11 -4.42,5.70 -5.01,4.30 -4.83,2.82 -4.64,1.34 -3.72,0.02 -2.80,-1.29 -2.15,-1.70 -1.49,-2.12 -1.21,-2.27 -0.94,-2.42 -0.63,-2.49 -0.33,-2.57 -0.02,-2.57 0.29,-2.58 0.59,-2.50 0.89,-2.43 1.17,-2.29 1.45,-2.14 1.69,-1.94 1.92,-1.73 2.10,-1.48 2.28,-1.22 2.40,-0.93 2.51,-0.64 2.55,-0.33 2.59,-0.02 2.56,0.28 2.52,0.59 2.41,0.89 2.30,1.18 2.13,1.44 1.95,1.70 1.72,1.91 1.49,2.12 1.49,2.12 L 1.49,2.12 Z"></path></g><g transform="translate(52.1640625 115.20703125) rotate(0 1.49609375 3.48828125)" stroke="none"><path fill="#c30f16" d="M 2.02,1.52 Q 2.02,1.52 1.50,2.27 0.99,3.03 2.01,3.35 3.02,3.68 2.19,4.38 1.36,5.08 1.44,3.95 1.52,2.81 -0.96,1.96 -3.45,1.11 -3.54,0.53 -3.63,-0.04 -3.53,-0.62 -3.42,-1.20 -3.14,-1.72 -2.86,-2.23 -2.43,-2.63 -2.00,-3.03 -1.46,-3.27 -0.92,-3.51 -0.34,-3.57 0.24,-3.62 0.81,-3.49 1.38,-3.35 1.88,-3.04 2.38,-2.73 2.76,-2.28 3.13,-1.83 3.34,-1.28 3.56,-0.73 3.58,-0.14 3.60,0.44 3.44,1.00 3.27,1.56 2.94,2.05 2.60,2.53 2.13,2.88 1.66,3.23 1.10,3.41 0.54,3.59 -0.04,3.58 -0.63,3.57 -1.19,3.38 -1.74,3.18 -2.20,2.82 -2.67,2.46 -2.99,1.97 -3.31,1.48 -3.46,0.91 -3.61,0.34 -3.57,-0.24 -3.53,-0.82 -3.31,-1.37 -3.08,-1.91 -2.70,-2.35 -2.31,-2.80 -1.80,-3.09 -1.30,-3.39 -0.72,-3.51 -0.14,-3.63 0.43,-3.56 1.01,-3.48 1.54,-3.23 2.07,-2.98 2.50,-2.57 2.92,-2.16 3.19,-1.63 3.46,-1.11 3.46,-1.11 3.45,-1.11 3.06,-2.01 2.67,-2.92 3.74,-2.76 4.82,-2.61 5.84,-2.13 6.87,-1.66 7.73,-0.02 8.60,1.62 8.56,2.73 8.52,3.85 8.31,5.00 8.10,6.16 7.41,7.44 6.73,8.72 5.82,9.35 4.92,9.99 3.68,10.11 2.45,10.23 1.37,10.13 0.30,10.02 -0.81,9.34 -1.92,8.67 -2.84,7.89 -3.77,7.11 -4.26,6.14 -4.76,5.17 -4.72,3.73 -4.67,2.30 -3.93,1.08 -3.18,-0.12 -2.60,-0.82 -2.02,-1.52 -1.81,-1.74 -1.59,-1.96 -1.34,-2.12 -1.08,-2.29 -0.79,-2.38 -0.50,-2.48 -0.19,-2.50 0.10,-2.53 0.40,-2.48 0.70,-2.43 0.99,-2.31 1.27,-2.19 1.51,-2.00 1.75,-1.82 1.95,-1.58 2.14,-1.35 2.27,-1.07 2.40,-0.79 2.46,-0.49 2.52,-0.19 2.51,0.10 2.50,0.41 2.41,0.70 2.32,0.99 2.17,1.26 2.02,1.52 2.02,1.52 L 2.02,1.52 Z"></path></g><g transform="translate(103.9140625 91.984375) rotate(0 1.52734375 4.048828125)" stroke="none"><path fill="#c30f16" d="M 1.36,2.14 Q 1.36,2.14 0.73,2.59 0.11,3.05 0.11,4.40 0.10,5.75 1.25,5.23 2.40,4.71 3.64,4.68 4.88,4.64 4.00,5.32 3.11,5.99 2.77,4.72 2.42,3.45 3.46,4.17 4.50,4.90 3.39,4.93 2.29,4.96 1.14,4.31 -0.00,3.65 -0.43,3.60 -0.87,3.54 -1.28,3.39 -1.69,3.23 -2.06,2.98 -2.42,2.73 -2.71,2.40 -3.00,2.07 -3.21,1.68 -3.41,1.29 -3.52,0.86 -3.62,0.44 -3.62,-0.00 -3.62,-0.44 -3.52,-0.86 -3.41,-1.29 -3.21,-1.68 -3.00,-2.07 -2.71,-2.40 -2.42,-2.73 -2.06,-2.98 -1.69,-3.23 -1.28,-3.39 -0.87,-3.54 -0.43,-3.60 0.00,-3.65 -1.68,-2.53 -3.37,-1.40 -3.05,-1.90 -2.74,-2.41 -2.28,-2.78 -1.83,-3.16 -1.28,-3.37 -0.72,-3.58 -0.13,-3.60 0.45,-3.62 1.02,-3.45 1.58,-3.29 2.07,-2.95 2.55,-2.61 2.90,-2.13 3.25,-1.65 3.43,-1.09 3.61,-0.53 3.60,0.05 3.59,0.64 3.39,1.20 3.20,1.76 2.83,2.22 2.46,2.69 1.97,3.01 1.48,3.34 0.90,3.49 0.33,3.63 -0.25,3.59 -0.84,3.55 -1.38,3.32 -1.93,3.10 -2.37,2.71 -2.82,2.32 -3.12,1.80 -3.41,1.29 -3.53,0.71 -3.65,0.13 -3.57,-0.44 -3.50,-1.03 -3.24,-1.56 -2.99,-2.10 -2.57,-2.52 -2.16,-2.94 -1.63,-3.21 -1.10,-3.48 -0.52,-3.56 0.06,-3.65 0.64,-3.54 1.22,-3.44 1.74,-3.15 2.25,-2.87 2.65,-2.43 3.05,-2.00 3.29,-1.46 3.53,-0.91 3.59,-0.33 3.64,0.25 1.82,1.95 0.00,3.65 -0.43,3.60 -0.87,3.54 -1.28,3.39 -1.69,3.23 -2.06,2.98 -2.42,2.73 -2.71,2.40 -3.00,2.07 -3.21,1.68 -3.41,1.29 -3.52,0.86 -3.62,0.44 -3.62,0.00 -3.62,-0.44 -3.52,-0.86 -3.41,-1.29 -3.21,-1.68 -3.00,-2.07 -2.71,-2.40 -2.42,-2.73 -2.06,-2.98 -1.69,-3.23 -1.28,-3.39 -0.87,-3.54 -0.43,-3.60 0.00,-3.65 0.87,-3.04 1.74,-2.42 2.86,-2.41 3.98,-2.40 5.22,-2.25 6.46,-2.10 7.46,-1.41 8.47,-0.72 9.00,0.55 9.53,1.83 9.57,2.96 9.60,4.09 9.59,5.18 9.57,6.26 9.50,7.41 9.43,8.55 8.35,9.85 7.27,11.15 5.89,11.34 4.51,11.53 3.44,11.50 2.37,11.47 1.06,11.42 -0.25,11.37 -1.40,11.21 -2.55,11.06 -3.83,10.32 -5.12,9.59 -5.61,8.15 -6.10,6.71 -6.03,5.63 -5.96,4.55 -5.79,3.25 -5.62,1.94 -5.01,0.93 -4.40,-0.07 -3.56,-0.73 -2.72,-1.39 -2.04,-1.77 -1.36,-2.14 -1.08,-2.28 -0.81,-2.41 -0.51,-2.47 -0.20,-2.53 0.09,-2.52 0.40,-2.51 0.69,-2.42 0.99,-2.34 1.25,-2.19 1.52,-2.03 1.74,-1.82 1.96,-1.61 2.13,-1.35 2.29,-1.09 2.39,-0.80 2.49,-0.51 2.51,-0.20 2.54,0.09 2.49,0.40 2.44,0.70 2.32,0.98 2.20,1.26 2.02,1.51 1.83,1.75 1.60,1.95 1.36,2.14 1.36,2.14 L 1.36,2.14 Z"></path></g><g transform="translate(107.3046875 95.80859375) rotate(0 0.00004999999998744897 0.00004999999998744897)" stroke="none"><path fill="#c30f16" d="M 1.57,-1.57 Q 1.57,-1.57 1.77,-1.27 1.98,-0.98 2.09,-0.64 2.20,-0.29 2.19,0.05 2.18,0.41 2.05,0.75 1.93,1.09 1.70,1.37 1.48,1.65 1.18,1.84 0.87,2.04 0.52,2.12 0.18,2.21 -0.17,2.18 -0.53,2.15 -0.86,2.01 -1.19,1.87 -1.46,1.63 -1.73,1.39 -1.90,1.07 -2.08,0.76 -2.15,0.41 -2.21,0.05 -2.17,-0.29 -2.12,-0.65 -1.96,-0.97 -1.80,-1.29 -1.54,-1.54 -1.29,-1.80 -0.97,-1.96 -0.65,-2.12 -0.29,-2.17 0.06,-2.21 0.41,-2.15 0.76,-2.08 1.07,-1.90 1.39,-1.73 1.63,-1.46 1.87,-1.19 2.01,-0.86 2.15,-0.53 2.18,-0.17 2.21,0.18 2.12,0.52 2.03,0.87 1.84,1.18 1.65,1.48 1.37,1.70 1.09,1.93 0.75,2.05 0.41,2.18 0.05,2.19 -0.30,2.20 -0.64,2.09 -0.98,1.98 -1.27,1.77 -1.57,1.56 -1.57,1.57 -1.57,1.57 -1.73,1.35 -1.90,1.14 -2.01,0.90 -2.12,0.66 -2.16,0.39 -2.21,0.13 -2.20,-0.13 -2.18,-0.40 -2.10,-0.65 -2.02,-0.91 -1.88,-1.14 -1.74,-1.36 -1.55,-1.55 -1.36,-1.74 -1.14,-1.88 -0.91,-2.02 -0.65,-2.10 -0.40,-2.18 -0.13,-2.20 0.13,-2.21 0.39,-2.16 0.66,-2.12 0.90,-2.01 1.14,-1.90 1.35,-1.73 1.57,-1.57 1.57,-1.57 L 1.57,-1.57 Z"></path></g><g transform="translate(105.26953125 96.953125) rotate(0 -0.615234375 -0.611328125)" stroke="none"><path fill="#c30f16" d="M 2.12,-0.66 Q 2.12,-0.66 2.15,-0.13 2.18,0.40 1.96,0.88 1.74,1.36 1.32,1.69 0.91,2.02 0.38,2.12 -0.13,2.21 -0.64,2.05 -1.14,1.90 -1.52,1.52 -1.90,1.14 -2.05,0.64 -2.21,0.13 -2.12,-0.38 -2.02,-0.91 -1.69,-1.32 -1.36,-1.74 -0.88,-1.96 -0.39,-2.18 0.13,-2.15 0.66,-2.11 1.11,-1.84 1.57,-1.56 1.84,-1.11 L 2.12,-0.66 Z"></path></g><g transform="translate(59.1796875 86.77734375) rotate(0 3.50390625 3.427734375)" stroke="none"><path fill="#c30f16" d="M 2.23,1.13 Q 2.23,1.13 1.99,1.71 1.75,2.30 1.50,3.39 1.25,4.48 2.41,3.85 3.57,3.23 4.79,3.36 6.02,3.50 5.00,3.80 3.98,4.11 1.61,3.80 -0.75,3.48 -1.28,3.27 -1.82,3.06 -2.26,2.69 -2.70,2.32 -3.00,1.82 -3.30,1.33 -3.43,0.77 -3.56,0.20 -3.50,-0.36 -3.44,-0.93 -3.20,-1.46 -2.96,-1.98 -2.56,-2.40 -2.17,-2.83 -1.66,-3.10 -1.15,-3.37 -0.58,-3.47 -0.01,-3.56 0.55,-3.47 1.12,-3.38 1.63,-3.11 2.14,-2.84 2.54,-2.43 2.94,-2.01 3.18,-1.49 3.43,-0.96 3.49,-0.39 3.56,0.17 3.44,0.74 3.31,1.30 3.02,1.80 2.72,2.29 2.29,2.67 1.85,3.04 1.31,3.26 0.78,3.48 0.20,3.51 -0.37,3.54 -0.92,3.39 -1.48,3.24 -1.96,2.92 -2.44,2.60 -2.79,2.14 -3.14,1.68 -3.33,1.13 -3.51,0.59 -3.52,0.01 -3.52,-0.56 -3.34,-1.10 -3.15,-1.65 -2.81,-2.11 -2.46,-2.57 -1.98,-2.90 -1.51,-3.23 -0.95,-3.38 -0.40,-3.54 0.17,-3.51 0.75,-3.48 0.75,-3.48 0.75,-3.48 2.50,-3.37 4.25,-3.25 5.41,-3.08 6.56,-2.90 7.84,-2.68 9.12,-2.45 10.41,-1.47 11.70,-0.50 11.96,1.21 12.22,2.93 12.18,4.03 12.15,5.12 11.91,6.28 11.68,7.43 10.78,8.46 9.88,9.49 8.58,9.84 7.27,10.19 6.10,10.08 4.93,9.97 3.52,9.79 2.12,9.60 0.75,9.38 -0.62,9.17 -2.03,8.55 -3.44,7.94 -4.02,6.18 -4.60,4.42 -4.47,3.36 -4.34,2.31 -3.62,1.13 -2.89,-0.04 -2.56,-0.59 -2.23,-1.13 -2.07,-1.38 -1.90,-1.63 -1.67,-1.83 -1.45,-2.04 -1.18,-2.18 -0.92,-2.33 -0.63,-2.40 -0.33,-2.48 -0.03,-2.48 0.26,-2.49 0.55,-2.42 0.85,-2.35 1.12,-2.22 1.39,-2.08 1.62,-1.88 1.85,-1.69 2.02,-1.44 2.20,-1.19 2.31,-0.91 2.42,-0.63 2.46,-0.33 2.50,-0.03 2.47,0.26 2.44,0.56 2.34,0.84 2.23,1.13 2.23,1.13 L 2.23,1.13 Z"></path></g><g transform="translate(81 41.48828125) rotate(0 16.560546875 -3.865234375)" stroke="none"><path fill="#fdcc0d" d="M -1.75,-1.99 Q -1.75,-1.99 -0.87,-2.79 0.01,-3.59 0.77,-4.35 1.54,-5.11 2.92,-6.40 4.30,-7.70 5.40,-8.63 6.50,-9.57 7.58,-10.31 8.65,-11.06 9.63,-11.54 10.61,-12.02 11.51,-12.63 12.40,-13.23 13.36,-13.76 14.31,-14.29 15.40,-15.02 16.49,-15.76 17.64,-16.28 18.80,-16.81 20.01,-17.46 21.21,-18.12 23.90,-16.99 26.59,-15.86 26.65,-14.36 26.72,-12.87 26.71,-11.62 26.70,-10.38 26.61,-8.85 26.52,-7.32 26.41,-5.96 26.30,-4.60 26.28,-3.53 26.27,-2.45 26.27,-0.96 26.28,0.52 26.29,1.76 26.30,3.00 26.32,4.24 26.34,5.48 26.36,6.54 26.38,7.60 26.35,7.70 26.32,7.80 26.27,8.24 26.22,8.69 26.06,9.10 25.90,9.52 25.65,9.88 25.40,10.25 25.06,10.55 24.73,10.84 24.34,11.05 23.94,11.25 23.51,11.36 23.08,11.47 22.63,11.47 22.19,11.47 21.76,11.36 21.32,11.25 20.93,11.05 20.54,10.84 20.20,10.55 19.87,10.25 19.62,9.88 19.37,9.52 19.21,9.10 19.05,8.69 19.00,8.24 18.94,7.80 19.38,9.01 19.82,10.22 18.91,9.00 17.99,7.79 17.04,6.70 16.09,5.62 14.86,4.41 13.63,3.20 12.57,2.21 11.51,1.22 10.62,0.56 9.72,-0.08 8.65,-0.68 7.57,-1.28 6.30,-1.79 5.03,-2.29 3.95,-2.93 2.86,-3.57 1.76,-3.78 0.66,-3.99 0.65,-3.99 0.64,-3.99 0.20,-4.05 -0.23,-4.12 -0.65,-4.28 -1.06,-4.45 -1.42,-4.71 -1.79,-4.97 -2.08,-5.31 -2.37,-5.66 -2.57,-6.06 -2.77,-6.46 -2.86,-6.89 -2.96,-7.33 -2.95,-7.77 -2.95,-8.22 -2.83,-8.65 -2.71,-9.09 -2.50,-9.48 -2.28,-9.87 -1.98,-10.20 -1.68,-10.53 -1.30,-10.77 -0.93,-11.02 -0.51,-11.17 -0.09,-11.32 0.35,-11.36 0.79,-11.41 2.24,-11.39 3.70,-11.37 5.80,-11.22 7.91,-11.08 9.02,-10.87 10.13,-10.67 11.72,-10.34 13.31,-10.01 14.49,-9.84 15.68,-9.67 17.05,-9.44 18.41,-9.21 19.53,-9.02 20.65,-8.83 21.77,-8.89 22.89,-8.94 24.11,-8.95 25.32,-8.96 26.56,-8.96 27.80,-8.97 29.01,-8.92 30.22,-8.86 31.61,-8.62 33.00,-8.38 34.32,-8.12 35.64,-7.86 35.82,-7.87 35.99,-7.88 36.44,-7.82 36.90,-7.76 37.32,-7.60 37.74,-7.43 38.11,-7.17 38.48,-6.91 38.78,-6.56 39.08,-6.22 39.28,-5.81 39.49,-5.41 39.59,-4.97 39.69,-4.53 39.69,-4.07 39.68,-3.62 39.57,-3.18 39.46,-2.74 39.24,-2.34 39.02,-1.94 38.72,-1.60 38.41,-1.27 38.04,-1.01 37.66,-0.76 37.23,-0.60 36.81,-0.45 36.36,-0.40 35.90,-0.35 34.74,0.11 33.58,0.59 31.99,1.09 30.40,1.59 28.91,1.98 27.43,2.38 26.05,2.69 24.67,2.99 23.35,3.28 22.02,3.56 20.78,3.83 19.55,4.10 18.45,4.28 17.36,4.47 16.11,4.82 14.86,5.18 13.77,5.60 12.68,6.02 11.44,6.60 10.20,7.18 9.29,7.76 8.38,8.34 7.25,8.85 6.12,9.36 4.98,9.81 3.84,10.25 2.51,10.60 1.19,10.95 0.43,11.09 -0.32,11.23 -0.78,11.19 -1.25,11.16 -1.68,11.01 -2.12,10.87 -2.51,10.62 -2.91,10.38 -3.23,10.04 -3.55,9.71 -3.78,9.31 -4.01,8.91 -4.14,8.47 -4.27,8.02 -4.29,7.56 -4.31,7.10 -4.22,6.65 -4.13,6.19 -3.93,5.78 -3.74,5.36 -3.44,5.00 -3.15,4.64 -2.78,4.36 -2.42,4.08 -1.99,3.90 -1.57,3.72 -1.11,3.64 -0.65,3.57 0.28,2.58 1.22,1.59 2.10,0.87 2.97,0.15 4.03,-0.70 5.10,-1.56 5.96,-2.38 6.83,-3.21 7.32,-4.99 7.81,-6.78 8.11,-7.19 8.42,-7.60 8.81,-7.86 9.20,-8.12 9.64,-8.28 10.08,-8.44 10.54,-8.49 11.01,-8.54 11.47,-8.48 11.94,-8.41 12.37,-8.24 12.81,-8.07 13.19,-7.80 13.57,-7.53 13.87,-7.17 14.18,-6.82 14.39,-6.40 14.60,-5.98 14.71,-5.53 14.81,-5.07 14.81,-4.60 14.80,-4.14 14.68,-3.68 14.56,-3.23 14.34,-2.82 14.12,-2.41 13.80,-2.06 13.49,-1.72 11.87,-1.28 10.25,-0.83 9.16,-0.33 8.07,0.17 7.09,0.76 6.11,1.34 5.50,2.26 4.89,3.18 4.40,4.32 3.91,5.46 3.20,6.40 2.49,7.34 1.45,7.98 0.41,8.62 -0.74,8.94 -1.90,9.26 -0.52,8.03 0.84,6.79 0.88,6.60 0.92,6.42 0.80,6.87 0.67,7.32 0.43,7.73 0.20,8.14 -0.12,8.48 -0.44,8.82 -0.84,9.08 -1.24,9.33 -1.68,9.48 -2.13,9.63 -2.60,9.67 -3.07,9.71 -3.53,9.64 -4.00,9.57 -4.43,9.38 -4.87,9.20 -5.24,8.92 -5.62,8.64 -5.92,8.27 -6.22,7.91 -6.43,7.48 -6.63,7.06 -6.72,6.60 -6.82,6.14 -6.80,5.67 -6.79,5.19 -4.91,1.81 -3.03,-1.57 -2.70,-2.01 -2.37,-2.45 -1.91,-2.77 -1.46,-3.08 -0.92,-3.23 -0.39,-3.39 0.15,-3.36 0.70,-3.34 1.21,-3.14 1.73,-2.94 2.15,-2.58 2.58,-2.23 2.87,-1.76 3.16,-1.29 3.28,-0.75 3.40,-0.21 3.35,0.33 3.29,0.88 3.07,1.38 2.84,1.89 2.46,2.29 2.09,2.70 1.60,2.96 1.11,3.22 0.57,3.32 0.02,3.41 -0.51,3.33 -1.06,3.24 -1.55,2.99 -2.04,2.73 -2.42,2.33 -2.80,1.94 -3.04,1.44 -3.28,0.94 -3.34,0.39 -3.41,-0.15 -3.29,-0.69 -3.18,-1.23 -2.90,-1.71 -2.62,-2.18 -2.20,-2.54 -1.78,-2.91 -1.27,-3.11 -0.76,-3.32 -0.21,-3.36 0.34,-3.39 0.87,-3.25 1.40,-3.11 1.86,-2.80 2.32,-2.49 2.66,-2.06 3.00,-1.62 3.18,-1.10 3.36,-0.58 3.36,-0.02 3.37,0.52 3.20,1.04 3.03,1.57 3.03,1.57 3.03,1.57 1.98,3.99 0.92,6.42 0.80,6.87 0.67,7.32 0.43,7.73 0.20,8.14 -0.12,8.48 -0.44,8.82 -0.84,9.08 -1.24,9.33 -1.68,9.48 -2.13,9.63 -2.60,9.67 -3.07,9.71 -3.53,9.64 -4.00,9.57 -4.43,9.38 -4.87,9.20 -5.24,8.92 -5.62,8.64 -5.92,8.27 -6.22,7.91 -6.42,7.48 -6.63,7.06 -6.72,6.60 -6.82,6.14 -6.80,5.67 -6.79,5.19 -6.14,3.99 -5.49,2.78 -4.21,2.28 -2.94,1.78 -2.48,0.69 -2.01,-0.39 -1.51,-1.40 -1.01,-2.40 -0.25,-3.23 0.49,-4.06 1.69,-4.90 2.89,-5.75 3.96,-6.37 5.04,-6.99 6.56,-7.70 8.07,-8.40 9.65,-8.47 11.22,-8.54 9.82,-8.07 8.42,-7.60 8.81,-7.86 9.20,-8.12 9.64,-8.28 10.08,-8.44 10.54,-8.49 11.01,-8.54 11.47,-8.48 11.94,-8.41 12.37,-8.24 12.81,-8.07 13.19,-7.80 13.57,-7.53 13.87,-7.17 14.18,-6.82 14.39,-6.40 14.60,-5.98 14.71,-5.53 14.81,-5.07 14.81,-4.60 14.80,-4.14 14.68,-3.68 14.56,-3.23 14.34,-2.82 14.12,-2.41 13.80,-2.06 13.49,-1.72 13.50,-1.62 13.50,-1.52 13.96,-2.61 14.43,-3.71 14.36,-2.61 14.29,-1.52 13.88,-0.47 13.48,0.58 12.79,1.54 12.11,2.50 11.11,3.36 10.11,4.21 9.05,5.06 7.99,5.91 7.02,6.72 6.05,7.53 5.06,8.38 4.06,9.23 2.94,9.93 1.83,10.64 0.75,10.93 -0.32,11.23 -0.78,11.19 -1.25,11.16 -1.68,11.01 -2.12,10.87 -2.51,10.62 -2.91,10.38 -3.23,10.04 -3.55,9.71 -3.78,9.31 -4.01,8.91 -4.14,8.47 -4.27,8.02 -4.29,7.56 -4.31,7.10 -4.22,6.65 -4.13,6.19 -3.93,5.78 -3.74,5.36 -3.44,5.00 -3.15,4.64 -2.78,4.36 -2.42,4.08 -1.99,3.90 -1.57,3.72 -1.11,3.64 -0.65,3.57 -0.51,3.55 -0.37,3.53 0.78,3.21 1.93,2.89 3.08,2.45 4.23,2.01 5.15,1.41 6.08,0.81 7.24,0.29 8.39,-0.21 9.60,-0.75 10.81,-1.29 11.94,-1.65 13.06,-2.01 14.38,-2.35 15.70,-2.69 16.92,-2.87 18.14,-3.05 19.26,-3.28 20.38,-3.50 21.81,-3.80 23.24,-4.09 24.31,-4.34 25.39,-4.60 26.84,-5.04 28.29,-5.48 29.49,-5.89 30.68,-6.31 32.03,-6.85 33.37,-7.40 34.68,-7.64 35.99,-7.88 36.44,-7.82 36.89,-7.76 37.32,-7.60 37.74,-7.43 38.11,-7.17 38.48,-6.91 38.78,-6.56 39.08,-6.22 39.28,-5.82 39.49,-5.41 39.59,-4.97 39.69,-4.53 39.69,-4.07 39.68,-3.62 39.57,-3.18 39.46,-2.74 39.24,-2.34 39.02,-1.94 38.72,-1.60 38.41,-1.27 38.04,-1.01 37.66,-0.76 37.23,-0.60 36.81,-0.45 36.36,-0.40 35.90,-0.35 35.88,-0.35 35.85,-0.35 34.75,-0.53 33.65,-0.71 32.27,-0.96 30.88,-1.22 29.68,-1.39 28.47,-1.56 27.33,-1.56 26.19,-1.57 24.81,-1.58 23.42,-1.58 22.12,-1.61 20.81,-1.64 19.62,-1.82 18.44,-2.00 17.17,-2.31 15.90,-2.63 14.50,-2.80 13.09,-2.97 11.84,-3.22 10.59,-3.47 8.98,-3.73 7.37,-3.99 5.53,-4.01 3.70,-4.03 2.17,-4.01 0.64,-3.99 0.20,-4.05 -0.23,-4.12 -0.65,-4.28 -1.06,-4.45 -1.42,-4.71 -1.79,-4.97 -2.08,-5.31 -2.37,-5.65 -2.57,-6.05 -2.77,-6.45 -2.86,-6.89 -2.96,-7.33 -2.95,-7.77 -2.95,-8.22 -2.83,-8.65 -2.71,-9.08 -2.50,-9.48 -2.28,-9.87 -1.98,-10.20 -1.68,-10.53 -1.30,-10.77 -0.93,-11.02 -0.51,-11.17 -0.09,-11.32 0.35,-11.36 0.79,-11.41 0.80,-11.41 0.81,-11.41 1.92,-11.27 3.03,-11.14 4.18,-10.82 5.33,-10.50 6.53,-9.77 7.73,-9.04 8.99,-8.53 10.25,-8.02 11.19,-7.37 12.14,-6.72 13.23,-6.10 14.32,-5.47 15.23,-4.74 16.14,-4.01 17.33,-2.94 18.52,-1.86 19.83,-0.67 21.14,0.51 21.90,1.25 22.67,1.99 23.81,3.45 24.95,4.91 25.64,6.35 26.32,7.80 26.27,8.24 26.22,8.69 26.06,9.10 25.90,9.52 25.65,9.88 25.40,10.25 25.06,10.55 24.73,10.84 24.34,11.05 23.94,11.25 23.51,11.36 23.08,11.47 22.63,11.47 22.19,11.47 21.76,11.36 21.33,11.25 20.93,11.05 20.54,10.84 20.20,10.55 19.87,10.25 19.62,9.88 19.37,9.52 19.21,9.10 19.05,8.69 19.00,8.24 18.94,7.80 18.98,7.42 19.02,7.03 19.04,5.96 19.06,4.89 19.08,3.59 19.10,2.29 19.11,0.94 19.12,-0.40 19.13,-1.46 19.13,-2.53 19.16,-3.72 19.18,-4.91 19.27,-6.41 19.36,-7.91 19.41,-9.15 19.46,-10.38 19.45,-11.62 19.45,-12.86 19.49,-14.00 19.53,-15.14 22.45,-13.89 25.36,-12.64 24.31,-12.03 23.26,-11.42 22.19,-10.82 21.12,-10.21 20.05,-9.70 18.98,-9.20 17.81,-8.61 16.64,-8.02 15.66,-7.51 14.68,-7.00 13.50,-6.50 12.31,-6.00 11.21,-5.45 10.10,-4.89 9.04,-4.14 7.98,-3.39 6.64,-2.29 5.31,-1.18 4.43,-0.37 3.56,0.43 2.66,1.21 1.75,1.99 1.49,2.17 1.23,2.35 0.93,2.47 0.63,2.58 0.31,2.62 -0.00,2.66 -0.32,2.62 -0.64,2.58 -0.94,2.46 -1.24,2.35 -1.50,2.16 -1.76,1.98 -1.98,1.74 -2.19,1.50 -2.34,1.22 -2.48,0.93 -2.56,0.62 -2.64,0.31 -2.64,-0.00 -2.63,-0.32 -2.56,-0.63 -2.48,-0.94 -2.33,-1.23 -2.18,-1.51 -1.97,-1.75 -1.75,-1.99 -1.75,-1.99 L -1.75,-1.99 Z"></path></g><g transform="translate(80.49609375 21.734375) rotate(0 -4.294921875 -3.62109375)" stroke="none"><path fill="#fdcc0d" d="M -1.90,1.74 Q -1.90,1.74 -2.77,0.80 -3.64,-0.12 -4.91,-1.21 -6.17,-2.30 -8.03,-3.51 -9.89,-4.72 -10.26,-4.99 -10.63,-5.27 -10.89,-5.65 -11.15,-6.02 -11.28,-6.47 -11.40,-6.91 -11.38,-7.37 -11.36,-7.82 -11.19,-8.25 -11.03,-8.68 -10.73,-9.03 -10.44,-9.38 -10.05,-9.62 -9.66,-9.86 -9.21,-9.97 -8.76,-10.07 -8.30,-10.02 -7.85,-9.98 -7.43,-9.79 -7.01,-9.60 -6.68,-9.29 -6.34,-8.97 -6.12,-8.57 -5.90,-8.16 -5.83,-7.71 -5.75,-7.26 -5.82,-6.81 -5.89,-6.35 -6.10,-5.95 -6.31,-5.54 -6.64,-5.22 -6.97,-4.90 -7.39,-4.71 -7.80,-4.51 -8.26,-4.46 -8.72,-4.40 -9.16,-4.50 -9.61,-4.59 -10.01,-4.83 -10.40,-5.06 -10.70,-5.41 -11.00,-5.76 -11.18,-6.18 -11.35,-6.61 -11.38,-7.06 -11.41,-7.52 -11.29,-7.96 -11.17,-8.41 -10.91,-8.79 -10.66,-9.17 -10.30,-9.45 -9.93,-9.73 -9.50,-9.88 -9.07,-10.03 -8.61,-10.04 -8.15,-10.04 -7.71,-9.90 -7.28,-9.75 -7.28,-9.75 -7.28,-9.75 -5.46,-8.54 -3.64,-7.33 -2.48,-6.27 -1.31,-5.21 -0.56,-4.42 0.19,-3.63 1.05,-2.68 1.90,-1.74 2.08,-1.48 2.26,-1.23 2.37,-0.94 2.49,-0.65 2.53,-0.34 2.57,-0.04 2.54,0.26 2.51,0.57 2.40,0.87 2.30,1.16 2.12,1.42 1.95,1.68 1.72,1.89 1.49,2.09 1.22,2.24 0.95,2.39 0.65,2.47 0.35,2.55 0.03,2.56 -0.27,2.56 -0.57,2.49 -0.87,2.42 -1.15,2.28 -1.43,2.14 -1.66,1.94 -1.90,1.74 -1.90,1.74 L -1.90,1.74 Z"></path></g><g transform="translate(71.80859375 34.37109375) rotate(0 -4.533203125 0.4140625)" stroke="none"><path fill="#fdcc0d" d="M 0,2.58 Q 0,2.58 -0.71,2.63 -1.42,2.67 -2.62,2.86 -3.83,3.06 -6.31,3.44 -8.79,3.82 -9.27,3.78 -9.76,3.75 -10.21,3.56 -10.65,3.38 -11.02,3.05 -11.39,2.73 -11.63,2.31 -11.87,1.89 -11.97,1.41 -12.07,0.94 -12.01,0.45 -11.95,-0.02 -11.74,-0.46 -11.52,-0.90 -11.18,-1.24 -10.84,-1.59 -10.41,-1.81 -9.97,-2.03 -9.49,-2.10 -9.01,-2.18 -8.53,-2.09 -8.05,-2.00 -7.63,-1.77 -7.20,-1.53 -6.87,-1.17 -6.54,-0.81 -6.35,-0.37 -6.15,0.07 -6.10,0.55 -6.06,1.04 -6.17,1.51 -6.29,1.98 -6.54,2.40 -6.80,2.81 -7.18,3.12 -7.55,3.43 -8.01,3.60 -8.46,3.77 -8.95,3.79 -9.44,3.81 -9.90,3.67 -10.37,3.53 -10.77,3.25 -11.17,2.97 -11.45,2.58 -11.74,2.19 -11.89,1.72 -12.04,1.26 -12.03,0.77 -12.02,0.29 -11.86,-0.16 -11.70,-0.62 -11.39,-1.00 -11.09,-1.39 -10.69,-1.65 -10.28,-1.92 -9.81,-2.04 -9.34,-2.16 -9.34,-2.16 -9.34,-2.16 -6.71,-2.46 -4.08,-2.75 -2.75,-2.71 -1.42,-2.67 -0.71,-2.63 0,-2.58 0.30,-2.54 0.61,-2.51 0.91,-2.40 1.20,-2.28 1.45,-2.11 1.71,-1.93 1.92,-1.70 2.12,-1.46 2.27,-1.19 2.41,-0.91 2.49,-0.61 2.56,-0.31 2.56,0.00 2.56,0.31 2.49,0.61 2.41,0.91 2.27,1.19 2.12,1.46 1.92,1.70 1.71,1.93 1.45,2.11 1.20,2.28 0.91,2.40 0.61,2.51 0.30,2.54 -0.00,2.58 -0.00,2.58 L 0,2.58 Z"></path></g><g transform="translate(98.73046875 17.06640625) rotate(0 -1.140625 -3.533203125)" stroke="none"><path fill="#fdcc0d" d="M -2.52,0.34 Q -2.52,0.34 -2.69,-0.57 -2.85,-1.49 -3.26,-2.51 -3.67,-3.53 -4.22,-4.38 -4.76,-5.22 -4.93,-5.55 -5.10,-5.88 -5.18,-6.24 -5.27,-6.60 -5.26,-6.97 -5.26,-7.34 -5.17,-7.69 -5.08,-8.05 -4.90,-8.38 -4.73,-8.70 -4.48,-8.97 -4.23,-9.25 -3.92,-9.45 -3.62,-9.66 -3.27,-9.79 -2.92,-9.92 -2.56,-9.96 -2.19,-10.00 -1.83,-9.95 -1.46,-9.90 -1.12,-9.76 -0.77,-9.63 -0.47,-9.42 -0.17,-9.20 0.06,-8.92 0.30,-8.65 1.40,-4.72 2.50,-0.80 2.56,-0.38 2.62,0.03 2.55,0.45 2.47,0.87 2.27,1.24 2.06,1.61 1.75,1.90 1.44,2.19 1.05,2.36 0.66,2.53 0.24,2.57 -0.17,2.61 -0.59,2.52 -1.00,2.42 -1.36,2.20 -1.72,1.97 -1.99,1.64 -2.26,1.32 -2.42,0.92 -2.57,0.52 -2.58,0.10 -2.60,-0.32 -2.48,-0.72 -2.36,-1.13 -2.12,-1.48 -1.88,-1.83 -1.53,-2.08 -1.19,-2.33 -0.79,-2.46 -0.38,-2.59 0.03,-2.59 0.46,-2.58 0.86,-2.44 1.26,-2.30 1.59,-2.04 1.93,-1.77 2.16,-1.42 2.39,-1.06 2.50,-0.65 2.61,-0.24 2.58,0.17 2.55,0.60 2.39,0.99 2.23,1.38 1.95,1.70 1.67,2.02 1.30,2.23 0.93,2.45 0.52,2.53 0.10,2.62 -0.31,2.57 -0.73,2.51 -1.12,2.33 -1.50,2.15 -1.80,1.85 -2.11,1.55 -2.30,1.18 -2.50,0.80 -2.50,0.80 -2.50,0.80 -3.63,-2.21 -4.76,-5.22 -4.93,-5.55 -5.10,-5.88 -5.18,-6.24 -5.27,-6.60 -5.26,-6.97 -5.26,-7.34 -5.17,-7.69 -5.08,-8.05 -4.90,-8.38 -4.73,-8.70 -4.48,-8.97 -4.23,-9.25 -3.92,-9.45 -3.62,-9.66 -3.27,-9.79 -2.93,-9.91 -2.56,-9.96 -2.19,-10.00 -1.83,-9.95 -1.46,-9.90 -1.12,-9.76 -0.77,-9.63 -0.47,-9.42 -0.17,-9.20 0.06,-8.92 0.30,-8.65 0.72,-7.74 1.14,-6.84 1.50,-5.73 1.86,-4.62 2.10,-3.42 2.34,-2.21 2.43,-1.28 2.52,-0.34 2.52,-0.04 2.53,0.26 2.46,0.56 2.39,0.86 2.25,1.13 2.11,1.41 1.91,1.64 1.71,1.87 1.46,2.05 1.21,2.23 0.93,2.35 0.64,2.46 0.34,2.50 0.04,2.54 -0.26,2.51 -0.57,2.48 -0.85,2.37 -1.14,2.27 -1.40,2.10 -1.65,1.93 -1.86,1.70 -2.07,1.48 -2.22,1.21 -2.36,0.94 -2.44,0.64 -2.52,0.34 -2.52,0.34 L -2.52,0.34 Z"></path></g><g transform="translate(116.33203125 21.4453125) rotate(0 3.986328125 -2.326171875)" stroke="none"><path fill="#fdcc0d" d="M -1.56,-2.06 Q -1.56,-2.06 -0.74,-2.72 0.07,-3.38 1.13,-4.26 2.19,-5.14 4.97,-6.33 7.76,-7.53 8.22,-7.48 8.69,-7.44 9.11,-7.25 9.54,-7.07 9.89,-6.75 10.23,-6.44 10.46,-6.03 10.69,-5.62 10.77,-5.16 10.85,-4.70 10.79,-4.24 10.72,-3.78 10.51,-3.36 10.30,-2.94 9.97,-2.62 9.63,-2.29 9.21,-2.09 8.79,-1.88 8.33,-1.82 7.87,-1.76 7.41,-1.85 6.95,-1.95 6.55,-2.18 6.14,-2.41 5.83,-2.76 5.52,-3.11 5.34,-3.54 5.16,-3.97 5.13,-4.44 5.09,-4.91 5.21,-5.36 5.33,-5.81 5.58,-6.20 5.84,-6.59 6.20,-6.88 6.57,-7.17 7.01,-7.33 7.45,-7.49 7.91,-7.50 8.38,-7.50 8.83,-7.36 9.27,-7.22 9.65,-6.95 10.03,-6.67 10.29,-6.29 10.56,-5.91 10.70,-5.46 10.83,-5.01 10.81,-4.55 10.80,-4.08 10.63,-3.64 10.47,-3.21 10.17,-2.84 9.88,-2.48 9.48,-2.23 9.09,-1.99 8.63,-1.88 8.18,-1.77 8.18,-1.77 8.18,-1.77 6.75,-1.13 5.33,-0.49 4.30,0.17 3.27,0.84 2.42,1.45 1.56,2.06 1.29,2.22 1.02,2.38 0.72,2.47 0.42,2.55 0.11,2.57 -0.20,2.58 -0.50,2.52 -0.81,2.46 -1.09,2.32 -1.37,2.19 -1.62,1.99 -1.86,1.80 -2.05,1.55 -2.24,1.30 -2.36,1.01 -2.48,0.72 -2.53,0.42 -2.59,0.11 -2.56,-0.19 -2.54,-0.51 -2.44,-0.80 -2.34,-1.10 -2.17,-1.36 -2.01,-1.63 -1.78,-1.85 -1.56,-2.06 -1.56,-2.06 L -1.56,-2.06 Z"></path></g><g transform="translate(126.0859375 46.07421875) rotate(0 6.42578125 -0.521484375)" stroke="none"><path fill="#fdcc0d" d="M -0.15,-2.58 Q -0.15,-2.58 1.01,-2.67 2.18,-2.76 3.49,-2.89 4.81,-3.01 5.88,-3.10 6.96,-3.19 8.09,-3.27 9.23,-3.35 11.01,-3.78 12.80,-4.21 13.31,-4.13 13.81,-4.06 14.27,-3.82 14.73,-3.59 15.08,-3.22 15.44,-2.85 15.66,-2.39 15.89,-1.93 15.95,-1.42 16.01,-0.91 15.91,-0.41 15.81,0.08 15.55,0.52 15.29,0.97 14.91,1.31 14.52,1.64 14.05,1.84 13.57,2.04 13.06,2.07 12.55,2.11 12.05,1.98 11.56,1.85 11.13,1.57 10.70,1.28 10.39,0.88 10.07,0.48 9.90,-0.00 9.73,-0.48 9.72,-0.99 9.71,-1.50 9.87,-1.99 10.03,-2.48 10.33,-2.89 10.63,-3.31 11.05,-3.60 11.47,-3.89 11.97,-4.04 12.46,-4.18 12.97,-4.16 13.48,-4.14 13.96,-3.96 14.44,-3.78 14.84,-3.45 15.23,-3.12 15.50,-2.69 15.77,-2.25 15.89,-1.75 16.01,-1.26 15.96,-0.74 15.91,-0.23 15.70,0.22 15.49,0.69 15.15,1.07 14.80,1.45 14.35,1.69 13.90,1.94 13.40,2.03 12.89,2.12 12.89,2.12 12.89,2.12 11.37,2.51 9.84,2.89 8.72,2.81 7.59,2.73 6.27,2.64 4.95,2.55 3.73,2.51 2.50,2.48 1.33,2.53 0.15,2.58 -0.15,2.56 -0.46,2.54 -0.76,2.45 -1.06,2.36 -1.32,2.20 -1.59,2.03 -1.81,1.81 -2.03,1.59 -2.19,1.33 -2.36,1.06 -2.45,0.76 -2.54,0.46 -2.56,0.15 -2.58,-0.15 -2.52,-0.46 -2.47,-0.76 -2.34,-1.05 -2.21,-1.33 -2.02,-1.58 -1.83,-1.82 -1.58,-2.02 -1.34,-2.21 -1.05,-2.34 -0.77,-2.47 -0.46,-2.52 -0.15,-2.58 -0.15,-2.58 L -0.15,-2.58 Z"></path></g></svg>