<svg version="1.1" xmlns="http://www.w3.org/2000/svg" viewBox="0 0 353.0208333333335 333.3072916666667" width="1059.0625000000005" height="999.921875">
  <!-- svg-source:excalidraw -->
  
  <defs>
    <style class="style-fonts">
      @font-face {
        font-family: "Virgil";
        src: url("https://excalidraw.com/Virgil.woff2");
      }
      @font-face {
        font-family: "Cascadia";
        src: url("https://excalidraw.com/Cascadia.woff2");
      }
    </style>
  </defs>
  <g transform="translate(10 323.3072916666667) rotate(0 162.49674479166674 -156.65364583333334)" stroke="none"><path fill="#212121" d="M -9.27,-4.58 Q -9.27,-4.58 -7.58,-8.28 -5.90,-11.98 -3.16,-16.31 -0.42,-20.64 5.14,-27.69 10.70,-34.74 16.05,-40.94 21.39,-47.14 27.59,-53.82 33.80,-60.50 37.01,-63.87 40.22,-67.23 44.53,-71.37 48.84,-75.51 54.21,-81.62 59.58,-87.72 64.94,-93.66 70.29,-99.60 76.01,-105.32 81.74,-111.05 86.87,-116.13 92.00,-121.22 95.06,-124.17 98.12,-127.12 103.74,-132.64 109.35,-138.15 115.05,-143.95 120.75,-149.76 126.19,-155.28 131.63,-160.81 137.28,-166.48 142.93,-172.14 148.33,-177.68 153.73,-183.22 158.33,-188.00 162.93,-192.78 167.49,-196.83 172.05,-200.88 176.53,-205.13 181.01,-209.37 186.83,-214.00 192.64,-218.63 196.61,-221.35 200.58,-224.08 205.20,-227.21 209.82,-230.35 213.77,-233.19 217.72,-236.04 222.37,-239.53 227.03,-243.01 235.24,-249.17 243.45,-255.32 247.38,-258.02 251.31,-260.71 258.31,-266.28 265.32,-271.85 269.16,-275.13 273.01,-278.41 276.36,-281.36 279.71,-284.31 284.31,-288.04 288.91,-291.77 292.13,-294.59 295.36,-297.41 300.15,-301.74 304.94,-306.07 307.89,-309.20 310.84,-312.34 313.28,-306.49 315.73,-300.65 319.28,-298.27 322.84,-295.89 318.34,-296.24 313.84,-296.58 307.52,-296.65 301.20,-296.71 295.85,-296.66 290.49,-296.60 283.86,-297.01 277.23,-297.42 269.62,-298.11 262.01,-298.79 255.50,-298.99 248.98,-299.18 244.36,-299.14 239.74,-299.10 234.23,-299.31 228.72,-299.52 223.32,-299.38 217.91,-299.24 212.99,-299.08 208.08,-298.91 201.72,-298.94 195.37,-298.96 189.66,-298.61 183.94,-298.26 179.08,-297.87 174.21,-297.49 169.60,-297.44 165.00,-297.38 159.10,-297.94 153.21,-298.50 148.09,-298.61 142.97,-298.72 138.68,-298.51 134.39,-298.30 132.15,-298.38 129.91,-298.46 127.81,-299.25 125.72,-300.04 123.98,-301.46 122.25,-302.88 121.05,-304.77 119.86,-306.67 119.34,-308.85 118.82,-311.03 119.02,-313.26 119.22,-315.49 120.12,-317.54 121.02,-319.59 122.53,-321.25 124.04,-322.90 126.00,-323.99 127.96,-325.08 130.16,-325.48 132.37,-325.89 134.58,-325.57 136.80,-325.25 138.80,-324.23 140.80,-323.22 142.37,-321.62 143.94,-320.03 144.92,-318.01 145.90,-316.00 146.18,-313.77 146.47,-311.55 146.03,-309.35 145.59,-307.16 144.47,-305.22 143.35,-303.28 141.67,-301.79 139.99,-300.31 137.92,-299.44 135.86,-298.57 133.62,-298.41 131.39,-298.25 129.22,-298.81 127.05,-299.37 125.17,-300.59 123.30,-301.81 121.91,-303.57 120.52,-305.33 119.76,-307.44 119.01,-309.54 118.97,-311.78 118.92,-314.02 119.60,-316.16 120.27,-318.30 121.60,-320.11 122.92,-321.91 124.75,-323.21 126.58,-324.50 128.73,-325.14 130.87,-325.78 130.87,-325.78 130.87,-325.78 137.18,-325.87 143.50,-325.96 148.92,-325.79 154.35,-325.61 163.57,-325.67 172.80,-325.73 177.59,-325.81 182.38,-325.88 186.78,-326.12 191.18,-326.36 195.80,-326.32 200.42,-326.28 208.24,-326.41 216.07,-326.54 223.27,-326.49 230.47,-326.45 235.15,-326.22 239.84,-325.99 244.62,-325.88 249.40,-325.78 256.41,-325.61 263.43,-325.44 271.61,-325.29 279.79,-325.14 285.25,-324.71 290.70,-324.29 295.23,-324.19 299.75,-324.10 304.37,-323.72 308.98,-323.33 313.95,-322.89 318.91,-322.45 323.47,-321.60 328.03,-320.74 331.86,-314.42 335.68,-308.10 332.89,-302.32 330.10,-296.55 326.69,-293.99 323.28,-291.43 318.65,-287.52 314.01,-283.62 308.56,-279.36 303.11,-275.11 298.75,-271.21 294.39,-267.31 291.01,-264.44 287.63,-261.58 283.57,-258.00 279.52,-254.41 275.29,-250.88 271.07,-247.34 263.98,-242.38 256.89,-237.42 249.22,-231.29 241.54,-225.16 236.78,-221.00 232.03,-216.83 228.13,-213.83 224.24,-210.84 219.69,-207.19 215.14,-203.55 211.67,-201.01 208.21,-198.46 203.19,-194.45 198.18,-190.44 193.67,-186.36 189.16,-182.28 184.61,-178.51 180.05,-174.74 175.35,-170.15 170.65,-165.55 165.40,-160.26 160.14,-154.97 154.49,-149.31 148.84,-143.65 143.36,-138.21 137.87,-132.77 132.27,-127.12 126.68,-121.47 120.74,-115.72 114.80,-109.97 111.45,-106.69 108.10,-103.40 103.16,-98.89 98.23,-94.37 92.79,-89.18 87.34,-83.99 81.88,-78.27 76.41,-72.55 70.51,-66.25 64.62,-59.94 60.63,-55.68 56.65,-51.41 53.57,-48.24 50.49,-45.08 44.35,-38.55 38.21,-32.01 32.98,-26.35 27.75,-20.69 24.61,-16.88 21.47,-13.07 17.29,-7.81 13.10,-2.56 11.18,1.00 9.27,4.58 8.58,5.62 7.90,6.66 6.99,7.51 6.07,8.36 4.98,8.97 3.90,9.57 2.69,9.90 1.49,10.23 0.24,10.26 -0.99,10.29 -2.21,10.02 -3.43,9.75 -4.55,9.20 -5.66,8.65 -6.62,7.84 -7.57,7.04 -8.30,6.03 -9.03,5.02 -9.50,3.87 -9.97,2.71 -10.15,1.48 -10.33,0.24 -10.21,-0.99 -10.09,-2.23 -9.68,-3.40 -9.27,-4.58 -9.27,-4.58 L -9.27,-4.58 Z"></path></g><g transform="translate(333.0403645833335 13.75) rotate(0 4.8046875 83.30403645833334)" stroke="none"><path fill="#212121" d="M 10.03,0.00 Q 10.03,0.00 10.21,2.11 10.39,4.22 11.06,8.94 11.74,13.67 12.26,18.04 12.78,22.41 13.18,26.81 13.58,31.22 14.16,36.26 14.74,41.30 15.35,46.34 15.95,51.38 16.40,56.82 16.85,62.26 17.15,67.59 17.44,72.92 17.85,77.51 18.25,82.09 18.79,87.73 19.32,93.37 19.86,98.19 20.40,103.02 20.90,107.42 21.40,111.82 22.03,117.29 22.65,122.77 22.90,128.33 23.15,133.90 23.38,139.45 23.61,145.01 23.85,149.28 24.08,153.55 24.47,159.89 24.85,166.23 24.49,168.61 24.12,170.99 23.01,173.12 21.91,175.26 20.18,176.94 18.45,178.61 16.27,179.64 14.10,180.67 11.71,180.96 9.32,181.24 6.96,180.75 4.60,180.25 2.53,179.03 0.45,177.81 -1.11,175.99 -2.69,174.17 -3.60,171.95 -4.52,169.72 -4.67,167.32 -4.82,164.91 -4.20,162.59 -3.58,160.26 -2.25,158.26 -0.92,156.25 0.97,154.78 2.87,153.30 5.15,152.51 7.42,151.72 9.83,151.69 12.24,151.67 14.52,152.42 16.81,153.16 18.74,154.60 20.67,156.04 22.05,158.02 23.42,160.00 24.08,162.31 24.75,164.62 24.64,167.03 24.54,169.43 23.67,171.68 22.80,173.92 21.26,175.77 19.72,177.62 17.67,178.88 15.62,180.15 13.27,180.69 10.92,181.23 8.53,180.99 6.13,180.75 3.94,179.76 1.74,178.77 -0.01,177.13 -1.77,175.50 -2.92,173.38 -4.07,171.26 -4.48,168.89 -4.90,166.52 -4.90,166.52 -4.90,166.53 -4.50,166.54 -4.10,166.56 -4.73,161.52 -5.36,156.48 -5.62,150.01 -5.89,143.55 -6.10,138.78 -6.31,134.01 -6.53,128.75 -6.75,123.48 -7.14,117.83 -7.53,112.17 -7.90,106.36 -8.28,100.55 -8.86,95.37 -9.45,90.20 -9.63,84.21 -9.82,78.23 -10.16,71.81 -10.51,65.38 -10.46,61.08 -10.42,56.78 -10.80,50.70 -11.18,44.62 -11.42,39.03 -11.65,33.43 -11.44,29.14 -11.23,24.84 -11.03,19.01 -10.82,13.19 -10.61,8.69 -10.40,4.20 -10.21,2.09 -10.03,-0.00 -9.88,-1.20 -9.74,-2.41 -9.31,-3.54 -8.88,-4.67 -8.19,-5.66 -7.50,-6.66 -6.60,-7.46 -5.69,-8.26 -4.62,-8.82 -3.55,-9.38 -2.37,-9.67 -1.20,-9.96 0.00,-9.96 1.21,-9.96 2.39,-9.67 3.56,-9.38 4.63,-8.81 5.70,-8.25 6.61,-7.45 7.51,-6.64 8.20,-5.65 8.89,-4.65 9.31,-3.52 9.74,-2.39 9.89,-1.19 10.03,0.00 10.03,0.00 L 10.03,0.00 Z"></path></g><g transform="translate(37.200520833333485 95.69661458333331) rotate(0 89.36848958333326 87.92643229166669)" stroke="none"><path fill="#212121" d="M 8.84,-6.08 Q 8.84,-6.08 10.73,-3.61 12.61,-1.14 16.04,3.13 19.48,7.40 22.60,11.74 25.72,16.07 29.22,19.93 32.71,23.79 36.39,28.14 40.06,32.49 43.35,36.18 46.63,39.88 51.53,44.52 56.42,49.16 60.92,52.92 65.41,56.67 70.82,61.50 76.22,66.33 81.23,69.97 86.24,73.62 90.11,76.81 93.98,80.00 98.34,84.22 102.70,88.43 106.40,91.86 110.09,95.28 113.46,98.41 116.83,101.54 121.67,106.22 126.50,110.89 130.24,114.59 133.99,118.28 137.65,121.72 141.31,125.16 145.73,129.12 150.15,133.08 153.41,136.21 156.67,139.33 160.30,141.82 163.93,144.31 167.28,147.05 170.62,149.79 174.49,153.29 178.36,156.78 181.71,159.54 185.05,162.30 188.05,165.19 191.04,168.08 191.94,170.26 192.85,172.43 193.01,174.78 193.17,177.13 192.57,179.41 191.97,181.68 190.68,183.65 189.38,185.62 187.53,187.07 185.67,188.52 183.45,189.30 181.23,190.09 178.88,190.12 176.52,190.15 174.28,189.43 172.04,188.71 170.14,187.31 168.25,185.91 166.90,183.98 165.55,182.05 164.89,179.79 164.23,177.53 164.32,175.18 164.42,172.83 165.26,170.63 166.10,168.43 167.60,166.61 169.10,164.80 171.10,163.55 173.10,162.31 175.40,161.77 177.69,161.24 180.03,161.46 182.38,161.68 184.53,162.64 186.68,163.60 188.41,165.20 190.14,166.79 191.27,168.86 192.40,170.92 192.82,173.24 193.23,175.56 192.88,177.89 192.53,180.22 191.46,182.31 190.38,184.41 188.70,186.05 187.01,187.69 184.88,188.71 182.76,189.73 180.42,190.01 178.09,190.30 175.78,189.83 173.47,189.35 171.44,188.16 169.41,186.98 167.86,185.20 166.31,183.43 166.31,183.43 166.31,183.43 165.43,183.25 164.55,183.06 159.71,179.22 154.87,175.38 150.83,171.41 146.80,167.43 142.70,164.17 138.61,160.91 134.64,157.06 130.66,153.21 126.45,149.26 122.25,145.30 118.47,141.46 114.69,137.61 111.02,133.91 107.35,130.22 104.12,126.96 100.89,123.69 96.69,119.45 92.48,115.21 88.31,111.19 84.14,107.17 79.35,102.44 74.56,97.71 69.98,94.06 65.40,90.41 59.30,85.52 53.21,80.64 48.47,76.30 43.73,71.97 38.95,67.65 34.16,63.32 30.50,59.78 26.85,56.23 23.26,51.77 19.67,47.30 17.01,43.73 14.36,40.17 10.38,35.20 6.39,30.23 3.62,25.65 0.85,21.07 -2.36,16.22 -5.58,11.36 -7.21,8.72 -8.84,6.08 -9.44,4.94 -10.04,3.79 -10.35,2.53 -10.66,1.27 -10.66,-0.01 -10.66,-1.31 -10.34,-2.56 -10.03,-3.82 -9.43,-4.97 -8.83,-6.11 -7.96,-7.08 -7.10,-8.05 -6.04,-8.78 -4.97,-9.51 -3.76,-9.97 -2.55,-10.43 -1.26,-10.58 0.01,-10.74 1.30,-10.58 2.58,-10.42 3.79,-9.96 5.00,-9.50 6.07,-8.76 7.13,-8.02 7.99,-7.05 8.85,-6.08 8.84,-6.08 L 8.84,-6.08 Z"></path></g></svg>